<svg width="64" height="64" viewBox="0 0 64 64" fill="none" xmlns="http://www.w3.org/2000/svg">
<path d="M6 62C3.79086 62 2 60.2091 2 58L2 6C2 3.79086 3.79086 2 6 2L58 2C60.2091 2 62 3.79086 62 6L62 58C62 60.2091 60.2091 62 58 62L6 62Z" fill="#3BB98F"/>
<path d="M10 16C10 13.7909 11.7909 12 14 12C16.2091 12 18 13.7909 18 16C18 18.2091 16.2091 20 14 20C11.7909 20 10 18.2091 10 16Z" fill="white"/>
<path d="M24 16.0001C24 14.3433 25.3431 13.0001 27 13.0001L51 13.0001C52.6569 13.0001 54 14.3433 54 16.0001C54 17.657 52.6569 19.0001 51 19.0001L27 19.0001C25.3431 19.0001 24 17.657 24 16.0001Z" fill="white"/>
<path d="M10 31C10 28.7909 11.7909 27 14 27C16.2091 27 18 28.7909 18 31C18 33.2091 16.2091 35 14 35C11.7909 35 10 33.2091 10 31Z" fill="white"/>
<path d="M24 31.0001C24 29.3433 25.3431 28.0001 27 28.0001L51 28.0001C52.6569 28.0001 54 29.3433 54 31.0001C54 32.657 52.6569 34.0001 51 34.0001L27 34.0001C25.3431 34.0001 24 32.657 24 31.0001Z" fill="white"/>
<path d="M10 46C10 43.7909 11.7909 42 14 42C16.2091 42 18 43.7909 18 46C18 48.2091 16.2091 50 14 50C11.7909 50 10 48.2091 10 46Z" fill="white"/>
<path d="M24 46.0001C24 44.3433 25.3431 43.0001 27 43.0001L51 43.0001C52.6569 43.0001 54 44.3433 54 46.0001C54 47.657 52.6569 49.0001 51 49.0001L27 49.0001C25.3431 49.0001 24 47.657 24 46.0001Z" fill="white"/>
</svg>
