<svg width="64" height="64" viewBox="0 0 64 64" fill="none" xmlns="http://www.w3.org/2000/svg">
<rect x="22" y="7" width="40" height="50" rx="2" fill="#FFCC24"/>
<rect x="2" y="2" width="48" height="60" rx="2" fill="#7169FC"/>
<path d="M10 12.5C10 13.8807 11.1193 15 12.5 15L23.5 15C24.8807 15 26 13.8807 26 12.5C26 11.1193 24.8807 10 23.5 10L12.5 10C11.1193 10 10 11.1193 10 12.5Z" fill="white"/>
<path d="M10 25.5C10 26.8807 11.1193 28 12.5 28L39.5 28C40.8807 28 42 26.8807 42 25.5C42 24.1193 40.8807 23 39.5 23L12.5 23C11.1193 23 10 24.1193 10 25.5Z" fill="white"/>
<path d="M10 36.5C10 37.8807 11.1193 39 12.5 39L39.5 39C40.8807 39 42 37.8807 42 36.5C42 35.1193 40.8807 34 39.5 34L12.5 34C11.1193 34 10 35.1193 10 36.5Z" fill="white"/>
<path d="M10 47.5C10 48.8807 11.1193 50 12.5 50L33.5 50C34.8807 50 36 48.8807 36 47.5C36 46.1193 34.8807 45 33.5 45H12.5C11.1193 45 10 46.1193 10 47.5Z" fill="white"/>
</svg>
