<svg width="64" height="64" viewBox="0 0 64 64" fill="none" xmlns="http://www.w3.org/2000/svg">
<rect x="2" y="4" width="60" height="60" rx="4" fill="#4B91FA"/>
<path d="M32 36C40.6709 36 47.8256 42.1098 48.8691 50.0047C49.0138 51.0997 48.1046 52 47 52L17 52C15.8954 52 14.9862 51.0997 15.1309 50.0047C16.1744 42.1098 23.3291 36 32 36Z" fill="white"/>
<path d="M41 25C41 29.9706 36.9706 34 32 34C27.0294 34 23 29.9706 23 25C23 20.0294 27.0294 16 32 16C36.9706 16 41 20.0294 41 25Z" fill="white"/>
<rect x="14" width="36" height="8" rx="2" fill="#FFAA1D"/>
</svg>
